<mxfile host="app.diagrams.net" modified="2022-01-19T12:21:09.010Z" agent="5.0 (Windows NT 10.0; Win64; x64) AppleWebKit/537.36 (KHTML, like Gecko) Chrome/92.0.4515.131 Safari/537.36" etag="IHEYPstrr3fCUYZU-g5u" version="16.0.3" type="github">
  <diagram id="e8QB3sOSUZqFol-sbKYM" name="Page-1">
    <mxGraphModel dx="1040" dy="522" grid="1" gridSize="10" guides="1" tooltips="1" connect="1" arrows="1" fold="1" page="1" pageScale="1" pageWidth="827" pageHeight="1169" math="1" shadow="0">
      <root>
        <mxCell id="0" />
        <mxCell id="1" parent="0" />
        <mxCell id="WCb_Pa4gvfn6-ByyAu2g-4" style="edgeStyle=orthogonalEdgeStyle;rounded=0;orthogonalLoop=1;jettySize=auto;html=1;entryX=0.5;entryY=0;entryDx=0;entryDy=0;endArrow=none;endFill=0;" edge="1" parent="1" source="WCb_Pa4gvfn6-ByyAu2g-1" target="WCb_Pa4gvfn6-ByyAu2g-2">
          <mxGeometry relative="1" as="geometry" />
        </mxCell>
        <mxCell id="WCb_Pa4gvfn6-ByyAu2g-1" value="$$s_{1}$$" style="ellipse;whiteSpace=wrap;html=1;aspect=fixed;fillColor=#d5e8d4;strokeColor=#000000;" vertex="1" parent="1">
          <mxGeometry x="240" y="240" width="20" height="20" as="geometry" />
        </mxCell>
        <mxCell id="WCb_Pa4gvfn6-ByyAu2g-2" value="$$s_{4}$$" style="ellipse;whiteSpace=wrap;html=1;aspect=fixed;fillColor=#d5e8d4;strokeColor=#000000;" vertex="1" parent="1">
          <mxGeometry x="240" y="340" width="20" height="20" as="geometry" />
        </mxCell>
        <mxCell id="WCb_Pa4gvfn6-ByyAu2g-3" value="" style="endArrow=blockThin;html=1;rounded=0;endFill=1;strokeWidth=2;strokeColor=#FF0000;" edge="1" parent="1">
          <mxGeometry width="50" height="50" relative="1" as="geometry">
            <mxPoint x="290" y="280" as="sourcePoint" />
            <mxPoint x="270" y="260" as="targetPoint" />
          </mxGeometry>
        </mxCell>
        <mxCell id="WCb_Pa4gvfn6-ByyAu2g-5" value="$$s_{2}$$" style="ellipse;whiteSpace=wrap;html=1;aspect=fixed;fillColor=#d5e8d4;strokeColor=#000000;" vertex="1" parent="1">
          <mxGeometry x="340" y="240" width="20" height="20" as="geometry" />
        </mxCell>
        <mxCell id="WCb_Pa4gvfn6-ByyAu2g-6" value="$$s_{5}$$" style="ellipse;whiteSpace=wrap;html=1;aspect=fixed;fillColor=#d5e8d4;strokeColor=#000000;" vertex="1" parent="1">
          <mxGeometry x="340" y="340" width="20" height="20" as="geometry" />
        </mxCell>
        <mxCell id="WCb_Pa4gvfn6-ByyAu2g-7" value="$$s_{3}$$" style="ellipse;whiteSpace=wrap;html=1;aspect=fixed;fillColor=#d5e8d4;strokeColor=#000000;" vertex="1" parent="1">
          <mxGeometry x="290" y="290" width="20" height="20" as="geometry" />
        </mxCell>
        <mxCell id="WCb_Pa4gvfn6-ByyAu2g-8" value="$$s_{9}$$" style="ellipse;whiteSpace=wrap;html=1;aspect=fixed;fillColor=#7EA6E0;strokeColor=#000000;" vertex="1" parent="1">
          <mxGeometry x="440" y="340" width="20" height="20" as="geometry" />
        </mxCell>
        <mxCell id="WCb_Pa4gvfn6-ByyAu2g-9" value="$$s_{6}$$" style="ellipse;whiteSpace=wrap;html=1;aspect=fixed;fillColor=#7EA6E0;strokeColor=#000000;" vertex="1" parent="1">
          <mxGeometry x="440" y="240" width="20" height="20" as="geometry" />
        </mxCell>
        <mxCell id="WCb_Pa4gvfn6-ByyAu2g-10" value="$$s_{7}$$" style="ellipse;whiteSpace=wrap;html=1;aspect=fixed;fillColor=#7EA6E0;strokeColor=#000000;" vertex="1" parent="1">
          <mxGeometry x="540" y="240" width="20" height="20" as="geometry" />
        </mxCell>
        <mxCell id="WCb_Pa4gvfn6-ByyAu2g-11" value="$$s_{10}$$" style="ellipse;whiteSpace=wrap;html=1;aspect=fixed;fillColor=#7EA6E0;strokeColor=#000000;" vertex="1" parent="1">
          <mxGeometry x="540" y="340" width="20" height="20" as="geometry" />
        </mxCell>
        <mxCell id="WCb_Pa4gvfn6-ByyAu2g-12" value="$$s_{8}$$" style="ellipse;whiteSpace=wrap;html=1;aspect=fixed;fillColor=#7EA6E0;strokeColor=#000000;" vertex="1" parent="1">
          <mxGeometry x="490" y="290" width="20" height="20" as="geometry" />
        </mxCell>
        <mxCell id="WCb_Pa4gvfn6-ByyAu2g-14" value="" style="endArrow=none;html=1;rounded=0;entryX=1;entryY=1;entryDx=0;entryDy=0;exitX=0;exitY=0;exitDx=0;exitDy=0;" edge="1" parent="1" source="WCb_Pa4gvfn6-ByyAu2g-7" target="WCb_Pa4gvfn6-ByyAu2g-1">
          <mxGeometry width="50" height="50" relative="1" as="geometry">
            <mxPoint x="430" y="380" as="sourcePoint" />
            <mxPoint x="480" y="330" as="targetPoint" />
          </mxGeometry>
        </mxCell>
        <mxCell id="WCb_Pa4gvfn6-ByyAu2g-15" value="" style="endArrow=none;html=1;rounded=0;entryX=1;entryY=0.5;entryDx=0;entryDy=0;exitX=0;exitY=0.5;exitDx=0;exitDy=0;" edge="1" parent="1" source="WCb_Pa4gvfn6-ByyAu2g-5" target="WCb_Pa4gvfn6-ByyAu2g-1">
          <mxGeometry width="50" height="50" relative="1" as="geometry">
            <mxPoint x="302.92893218814606" y="302.92893218814595" as="sourcePoint" />
            <mxPoint x="267.07106781185394" y="267.0710678118537" as="targetPoint" />
          </mxGeometry>
        </mxCell>
        <mxCell id="WCb_Pa4gvfn6-ByyAu2g-16" value="" style="endArrow=none;html=1;rounded=0;entryX=0;entryY=1;entryDx=0;entryDy=0;exitX=1;exitY=0;exitDx=0;exitDy=0;" edge="1" parent="1" source="WCb_Pa4gvfn6-ByyAu2g-7" target="WCb_Pa4gvfn6-ByyAu2g-5">
          <mxGeometry width="50" height="50" relative="1" as="geometry">
            <mxPoint x="312.92893218814606" y="312.92893218814595" as="sourcePoint" />
            <mxPoint x="277.07106781185394" y="277.0710678118537" as="targetPoint" />
          </mxGeometry>
        </mxCell>
        <mxCell id="WCb_Pa4gvfn6-ByyAu2g-17" value="" style="endArrow=none;html=1;rounded=0;entryX=1;entryY=0;entryDx=0;entryDy=0;exitX=0;exitY=1;exitDx=0;exitDy=0;" edge="1" parent="1" source="WCb_Pa4gvfn6-ByyAu2g-7" target="WCb_Pa4gvfn6-ByyAu2g-2">
          <mxGeometry width="50" height="50" relative="1" as="geometry">
            <mxPoint x="322.92893218814606" y="322.92893218814595" as="sourcePoint" />
            <mxPoint x="287.07106781185394" y="287.0710678118537" as="targetPoint" />
          </mxGeometry>
        </mxCell>
        <mxCell id="WCb_Pa4gvfn6-ByyAu2g-18" value="" style="endArrow=none;html=1;rounded=0;entryX=1;entryY=0.5;entryDx=0;entryDy=0;exitX=0;exitY=0.5;exitDx=0;exitDy=0;" edge="1" parent="1" source="WCb_Pa4gvfn6-ByyAu2g-6" target="WCb_Pa4gvfn6-ByyAu2g-2">
          <mxGeometry width="50" height="50" relative="1" as="geometry">
            <mxPoint x="332.92893218814606" y="332.92893218814595" as="sourcePoint" />
            <mxPoint x="297.07106781185394" y="297.0710678118537" as="targetPoint" />
          </mxGeometry>
        </mxCell>
        <mxCell id="WCb_Pa4gvfn6-ByyAu2g-19" value="" style="endArrow=none;html=1;rounded=0;entryX=1;entryY=1;entryDx=0;entryDy=0;exitX=0;exitY=0;exitDx=0;exitDy=0;" edge="1" parent="1">
          <mxGeometry width="50" height="50" relative="1" as="geometry">
            <mxPoint x="342.92893218814606" y="342.92893218814595" as="sourcePoint" />
            <mxPoint x="307.07106781185394" y="307.0710678118537" as="targetPoint" />
          </mxGeometry>
        </mxCell>
        <mxCell id="WCb_Pa4gvfn6-ByyAu2g-20" value="" style="endArrow=none;html=1;rounded=0;entryX=0.5;entryY=1;entryDx=0;entryDy=0;exitX=0.5;exitY=0;exitDx=0;exitDy=0;" edge="1" parent="1" source="WCb_Pa4gvfn6-ByyAu2g-6" target="WCb_Pa4gvfn6-ByyAu2g-5">
          <mxGeometry width="50" height="50" relative="1" as="geometry">
            <mxPoint x="352.92893218814606" y="352.92893218814595" as="sourcePoint" />
            <mxPoint x="317.07106781185394" y="317.0710678118537" as="targetPoint" />
          </mxGeometry>
        </mxCell>
        <mxCell id="WCb_Pa4gvfn6-ByyAu2g-21" value="" style="endArrow=none;html=1;rounded=0;entryX=1;entryY=1;entryDx=0;entryDy=0;exitX=0;exitY=0;exitDx=0;exitDy=0;" edge="1" parent="1" source="WCb_Pa4gvfn6-ByyAu2g-8" target="WCb_Pa4gvfn6-ByyAu2g-5">
          <mxGeometry width="50" height="50" relative="1" as="geometry">
            <mxPoint x="362.92893218814606" y="362.92893218814595" as="sourcePoint" />
            <mxPoint x="327.07106781185394" y="327.0710678118537" as="targetPoint" />
          </mxGeometry>
        </mxCell>
        <mxCell id="WCb_Pa4gvfn6-ByyAu2g-22" value="" style="endArrow=none;html=1;rounded=0;entryX=1;entryY=0.5;entryDx=0;entryDy=0;exitX=0;exitY=0.5;exitDx=0;exitDy=0;" edge="1" parent="1" source="WCb_Pa4gvfn6-ByyAu2g-8" target="WCb_Pa4gvfn6-ByyAu2g-6">
          <mxGeometry width="50" height="50" relative="1" as="geometry">
            <mxPoint x="372.92893218814606" y="372.92893218814595" as="sourcePoint" />
            <mxPoint x="337.07106781185394" y="337.0710678118537" as="targetPoint" />
          </mxGeometry>
        </mxCell>
        <mxCell id="WCb_Pa4gvfn6-ByyAu2g-23" value="" style="endArrow=none;html=1;rounded=0;entryX=0.5;entryY=1;entryDx=0;entryDy=0;exitX=0.5;exitY=0;exitDx=0;exitDy=0;" edge="1" parent="1" source="WCb_Pa4gvfn6-ByyAu2g-8" target="WCb_Pa4gvfn6-ByyAu2g-9">
          <mxGeometry width="50" height="50" relative="1" as="geometry">
            <mxPoint x="382.92893218814606" y="382.92893218814595" as="sourcePoint" />
            <mxPoint x="347.07106781185394" y="347.0710678118537" as="targetPoint" />
          </mxGeometry>
        </mxCell>
        <mxCell id="WCb_Pa4gvfn6-ByyAu2g-24" value="" style="endArrow=none;html=1;rounded=0;entryX=1;entryY=1;entryDx=0;entryDy=0;exitX=0;exitY=0;exitDx=0;exitDy=0;" edge="1" parent="1" source="WCb_Pa4gvfn6-ByyAu2g-12" target="WCb_Pa4gvfn6-ByyAu2g-9">
          <mxGeometry width="50" height="50" relative="1" as="geometry">
            <mxPoint x="392.92893218814606" y="392.92893218814595" as="sourcePoint" />
            <mxPoint x="357.07106781185394" y="357.0710678118537" as="targetPoint" />
          </mxGeometry>
        </mxCell>
        <mxCell id="WCb_Pa4gvfn6-ByyAu2g-25" value="" style="endArrow=none;html=1;rounded=0;entryX=0;entryY=1;entryDx=0;entryDy=0;exitX=1;exitY=0;exitDx=0;exitDy=0;" edge="1" parent="1" source="WCb_Pa4gvfn6-ByyAu2g-8" target="WCb_Pa4gvfn6-ByyAu2g-12">
          <mxGeometry width="50" height="50" relative="1" as="geometry">
            <mxPoint x="402.92893218814606" y="402.92893218814595" as="sourcePoint" />
            <mxPoint x="367.07106781185394" y="367.0710678118537" as="targetPoint" />
          </mxGeometry>
        </mxCell>
        <mxCell id="WCb_Pa4gvfn6-ByyAu2g-26" value="" style="endArrow=none;html=1;rounded=0;entryX=1;entryY=0.5;entryDx=0;entryDy=0;exitX=0;exitY=0.5;exitDx=0;exitDy=0;" edge="1" parent="1" source="WCb_Pa4gvfn6-ByyAu2g-10" target="WCb_Pa4gvfn6-ByyAu2g-9">
          <mxGeometry width="50" height="50" relative="1" as="geometry">
            <mxPoint x="412.92893218814606" y="412.92893218814595" as="sourcePoint" />
            <mxPoint x="377.07106781185394" y="377.0710678118537" as="targetPoint" />
          </mxGeometry>
        </mxCell>
        <mxCell id="WCb_Pa4gvfn6-ByyAu2g-27" value="" style="endArrow=none;html=1;rounded=0;entryX=0.5;entryY=1;entryDx=0;entryDy=0;exitX=0.5;exitY=0;exitDx=0;exitDy=0;" edge="1" parent="1" source="WCb_Pa4gvfn6-ByyAu2g-11" target="WCb_Pa4gvfn6-ByyAu2g-10">
          <mxGeometry width="50" height="50" relative="1" as="geometry">
            <mxPoint x="422.92893218814606" y="422.92893218814595" as="sourcePoint" />
            <mxPoint x="387.07106781185394" y="387.0710678118537" as="targetPoint" />
          </mxGeometry>
        </mxCell>
        <mxCell id="WCb_Pa4gvfn6-ByyAu2g-28" value="" style="endArrow=none;html=1;rounded=0;entryX=1;entryY=1;entryDx=0;entryDy=0;exitX=-0.062;exitY=0.205;exitDx=0;exitDy=0;exitPerimeter=0;" edge="1" parent="1" source="WCb_Pa4gvfn6-ByyAu2g-11" target="WCb_Pa4gvfn6-ByyAu2g-12">
          <mxGeometry width="50" height="50" relative="1" as="geometry">
            <mxPoint x="432.92893218814606" y="432.92893218814595" as="sourcePoint" />
            <mxPoint x="397.07106781185394" y="397.0710678118537" as="targetPoint" />
          </mxGeometry>
        </mxCell>
        <mxCell id="WCb_Pa4gvfn6-ByyAu2g-29" value="" style="endArrow=blockThin;html=1;rounded=0;endFill=1;strokeWidth=2;strokeColor=#FF0000;" edge="1" parent="1">
          <mxGeometry width="50" height="50" relative="1" as="geometry">
            <mxPoint x="310" y="280" as="sourcePoint" />
            <mxPoint x="330" y="260" as="targetPoint" />
          </mxGeometry>
        </mxCell>
        <mxCell id="WCb_Pa4gvfn6-ByyAu2g-30" value="" style="endArrow=blockThin;html=1;rounded=0;endFill=1;strokeWidth=2;strokeColor=#FF0000;" edge="1" parent="1">
          <mxGeometry width="50" height="50" relative="1" as="geometry">
            <mxPoint x="280" y="309.9999999999999" as="sourcePoint" />
            <mxPoint x="260" y="330" as="targetPoint" />
          </mxGeometry>
        </mxCell>
        <mxCell id="WCb_Pa4gvfn6-ByyAu2g-31" value="" style="endArrow=blockThin;html=1;rounded=0;endFill=1;strokeWidth=2;strokeColor=#FF0000;" edge="1" parent="1">
          <mxGeometry width="50" height="50" relative="1" as="geometry">
            <mxPoint x="319" y="374.6599999999999" as="sourcePoint" />
            <mxPoint x="359" y="374.66" as="targetPoint" />
          </mxGeometry>
        </mxCell>
        <mxCell id="WCb_Pa4gvfn6-ByyAu2g-32" value="" style="endArrow=blockThin;html=1;rounded=0;endFill=1;strokeWidth=2;strokeColor=#007FFF;" edge="1" parent="1">
          <mxGeometry width="50" height="50" relative="1" as="geometry">
            <mxPoint x="304" y="317" as="sourcePoint" />
            <mxPoint x="324" y="337" as="targetPoint" />
          </mxGeometry>
        </mxCell>
        <mxCell id="WCb_Pa4gvfn6-ByyAu2g-33" value="" style="endArrow=blockThin;html=1;rounded=0;endFill=1;strokeWidth=2;strokeColor=#007FFF;" edge="1" parent="1">
          <mxGeometry width="50" height="50" relative="1" as="geometry">
            <mxPoint x="376" y="343" as="sourcePoint" />
            <mxPoint x="416" y="343" as="targetPoint" />
          </mxGeometry>
        </mxCell>
        <mxCell id="WCb_Pa4gvfn6-ByyAu2g-34" value="&lt;font face=&quot;Times New Roman&quot; style=&quot;font-size: 12px&quot;&gt;Breadth-First Search&lt;/font&gt;" style="text;html=1;align=center;verticalAlign=middle;resizable=0;points=[];autosize=1;strokeWidth=2;" vertex="1" parent="1">
          <mxGeometry x="359" y="365" width="120" height="20" as="geometry" />
        </mxCell>
        <mxCell id="WCb_Pa4gvfn6-ByyAu2g-35" value="" style="endArrow=blockThin;html=1;rounded=0;endFill=1;strokeWidth=2;strokeColor=#007FFF;" edge="1" parent="1">
          <mxGeometry width="50" height="50" relative="1" as="geometry">
            <mxPoint x="319" y="394.65999999999985" as="sourcePoint" />
            <mxPoint x="359" y="394.6600000000001" as="targetPoint" />
          </mxGeometry>
        </mxCell>
        <mxCell id="WCb_Pa4gvfn6-ByyAu2g-36" value="&lt;font face=&quot;Times New Roman&quot; style=&quot;font-size: 12px&quot;&gt;Breadth-First Search&lt;/font&gt;" style="text;html=1;align=center;verticalAlign=middle;resizable=0;points=[];autosize=1;strokeWidth=2;" vertex="1" parent="1">
          <mxGeometry x="359" y="385" width="120" height="20" as="geometry" />
        </mxCell>
      </root>
    </mxGraphModel>
  </diagram>
</mxfile>
